<mxfile host="Electron" agent="Mozilla/5.0 (X11; Linux x86_64) AppleWebKit/537.36 (KHTML, like Gecko) draw.io/26.2.2 Chrome/134.0.6998.178 Electron/35.1.2 Safari/537.36" version="26.2.2" pages="2">
  <diagram name="EntityRelationshipModel" id="ZaqREbgAXY3lRGOFYJ9y">
    <mxGraphModel dx="2278" dy="1943" grid="1" gridSize="10" guides="1" tooltips="1" connect="1" arrows="1" fold="1" page="1" pageScale="1" pageWidth="850" pageHeight="1100" math="0" shadow="0" extFonts="Permanent Marker^https://fonts.googleapis.com/css?family=Permanent+Marker">
      <root>
        <mxCell id="mg_lDado5WLa59hIkFFq-0" />
        <mxCell id="mg_lDado5WLa59hIkFFq-1" parent="mg_lDado5WLa59hIkFFq-0" />
        <mxCell id="uPAn2zGLbVk4IkGicm5K-40" style="edgeStyle=orthogonalEdgeStyle;rounded=0;orthogonalLoop=1;jettySize=auto;html=1;" edge="1" parent="mg_lDado5WLa59hIkFFq-1" source="LcfBNwEZTYmLYdUijIUJ-0" target="uPAn2zGLbVk4IkGicm5K-39">
          <mxGeometry relative="1" as="geometry">
            <Array as="points">
              <mxPoint x="250" y="640" />
            </Array>
          </mxGeometry>
        </mxCell>
        <mxCell id="uPAn2zGLbVk4IkGicm5K-42" style="edgeStyle=orthogonalEdgeStyle;rounded=0;orthogonalLoop=1;jettySize=auto;html=1;" edge="1" parent="mg_lDado5WLa59hIkFFq-1" source="LcfBNwEZTYmLYdUijIUJ-0" target="uPAn2zGLbVk4IkGicm5K-41">
          <mxGeometry relative="1" as="geometry" />
        </mxCell>
        <mxCell id="LcfBNwEZTYmLYdUijIUJ-0" value="Category" style="rounded=0;whiteSpace=wrap;html=1;" vertex="1" parent="mg_lDado5WLa59hIkFFq-1">
          <mxGeometry x="230" y="500" width="120" height="60" as="geometry" />
        </mxCell>
        <mxCell id="LcfBNwEZTYmLYdUijIUJ-24" style="edgeStyle=orthogonalEdgeStyle;rounded=0;orthogonalLoop=1;jettySize=auto;html=1;endArrow=none;startFill=0;" edge="1" parent="mg_lDado5WLa59hIkFFq-1" source="LcfBNwEZTYmLYdUijIUJ-1" target="LcfBNwEZTYmLYdUijIUJ-6">
          <mxGeometry relative="1" as="geometry" />
        </mxCell>
        <mxCell id="uPAn2zGLbVk4IkGicm5K-5" style="edgeStyle=orthogonalEdgeStyle;rounded=0;orthogonalLoop=1;jettySize=auto;html=1;endArrow=none;startFill=0;" edge="1" parent="mg_lDado5WLa59hIkFFq-1" source="LcfBNwEZTYmLYdUijIUJ-1" target="LcfBNwEZTYmLYdUijIUJ-4">
          <mxGeometry relative="1" as="geometry" />
        </mxCell>
        <mxCell id="uPAn2zGLbVk4IkGicm5K-24" style="edgeStyle=orthogonalEdgeStyle;rounded=0;orthogonalLoop=1;jettySize=auto;html=1;" edge="1" parent="mg_lDado5WLa59hIkFFq-1" source="LcfBNwEZTYmLYdUijIUJ-1" target="uPAn2zGLbVk4IkGicm5K-12">
          <mxGeometry relative="1" as="geometry">
            <Array as="points">
              <mxPoint x="890" y="530" />
            </Array>
          </mxGeometry>
        </mxCell>
        <mxCell id="uPAn2zGLbVk4IkGicm5K-25" style="edgeStyle=orthogonalEdgeStyle;rounded=0;orthogonalLoop=1;jettySize=auto;html=1;" edge="1" parent="mg_lDado5WLa59hIkFFq-1" source="LcfBNwEZTYmLYdUijIUJ-1" target="uPAn2zGLbVk4IkGicm5K-19">
          <mxGeometry relative="1" as="geometry" />
        </mxCell>
        <mxCell id="uPAn2zGLbVk4IkGicm5K-26" style="edgeStyle=orthogonalEdgeStyle;rounded=0;orthogonalLoop=1;jettySize=auto;html=1;" edge="1" parent="mg_lDado5WLa59hIkFFq-1" source="LcfBNwEZTYmLYdUijIUJ-1" target="uPAn2zGLbVk4IkGicm5K-20">
          <mxGeometry relative="1" as="geometry" />
        </mxCell>
        <mxCell id="uPAn2zGLbVk4IkGicm5K-27" style="edgeStyle=orthogonalEdgeStyle;rounded=0;orthogonalLoop=1;jettySize=auto;html=1;" edge="1" parent="mg_lDado5WLa59hIkFFq-1" source="LcfBNwEZTYmLYdUijIUJ-1" target="uPAn2zGLbVk4IkGicm5K-23">
          <mxGeometry relative="1" as="geometry">
            <Array as="points">
              <mxPoint x="785" y="530" />
            </Array>
          </mxGeometry>
        </mxCell>
        <mxCell id="uPAn2zGLbVk4IkGicm5K-28" style="edgeStyle=orthogonalEdgeStyle;rounded=0;orthogonalLoop=1;jettySize=auto;html=1;" edge="1" parent="mg_lDado5WLa59hIkFFq-1" source="LcfBNwEZTYmLYdUijIUJ-1" target="uPAn2zGLbVk4IkGicm5K-22">
          <mxGeometry relative="1" as="geometry" />
        </mxCell>
        <mxCell id="uPAn2zGLbVk4IkGicm5K-29" style="edgeStyle=orthogonalEdgeStyle;rounded=0;orthogonalLoop=1;jettySize=auto;html=1;" edge="1" parent="mg_lDado5WLa59hIkFFq-1" source="LcfBNwEZTYmLYdUijIUJ-1" target="uPAn2zGLbVk4IkGicm5K-14">
          <mxGeometry relative="1" as="geometry" />
        </mxCell>
        <mxCell id="uPAn2zGLbVk4IkGicm5K-30" style="edgeStyle=orthogonalEdgeStyle;rounded=0;orthogonalLoop=1;jettySize=auto;html=1;" edge="1" parent="mg_lDado5WLa59hIkFFq-1" source="LcfBNwEZTYmLYdUijIUJ-1" target="uPAn2zGLbVk4IkGicm5K-15">
          <mxGeometry relative="1" as="geometry" />
        </mxCell>
        <mxCell id="uPAn2zGLbVk4IkGicm5K-31" style="edgeStyle=orthogonalEdgeStyle;rounded=0;orthogonalLoop=1;jettySize=auto;html=1;" edge="1" parent="mg_lDado5WLa59hIkFFq-1" source="LcfBNwEZTYmLYdUijIUJ-1" target="uPAn2zGLbVk4IkGicm5K-21">
          <mxGeometry relative="1" as="geometry" />
        </mxCell>
        <mxCell id="uPAn2zGLbVk4IkGicm5K-33" style="edgeStyle=orthogonalEdgeStyle;rounded=0;orthogonalLoop=1;jettySize=auto;html=1;" edge="1" parent="mg_lDado5WLa59hIkFFq-1" source="LcfBNwEZTYmLYdUijIUJ-1" target="uPAn2zGLbVk4IkGicm5K-17">
          <mxGeometry relative="1" as="geometry" />
        </mxCell>
        <mxCell id="uPAn2zGLbVk4IkGicm5K-34" style="edgeStyle=orthogonalEdgeStyle;rounded=0;orthogonalLoop=1;jettySize=auto;html=1;" edge="1" parent="mg_lDado5WLa59hIkFFq-1" source="LcfBNwEZTYmLYdUijIUJ-1" target="uPAn2zGLbVk4IkGicm5K-16">
          <mxGeometry relative="1" as="geometry" />
        </mxCell>
        <mxCell id="uPAn2zGLbVk4IkGicm5K-35" style="edgeStyle=orthogonalEdgeStyle;rounded=0;orthogonalLoop=1;jettySize=auto;html=1;" edge="1" parent="mg_lDado5WLa59hIkFFq-1" source="LcfBNwEZTYmLYdUijIUJ-1" target="uPAn2zGLbVk4IkGicm5K-11">
          <mxGeometry relative="1" as="geometry" />
        </mxCell>
        <mxCell id="uPAn2zGLbVk4IkGicm5K-36" style="edgeStyle=orthogonalEdgeStyle;rounded=0;orthogonalLoop=1;jettySize=auto;html=1;" edge="1" parent="mg_lDado5WLa59hIkFFq-1" source="LcfBNwEZTYmLYdUijIUJ-1" target="uPAn2zGLbVk4IkGicm5K-18">
          <mxGeometry relative="1" as="geometry" />
        </mxCell>
        <mxCell id="uPAn2zGLbVk4IkGicm5K-37" style="edgeStyle=orthogonalEdgeStyle;rounded=0;orthogonalLoop=1;jettySize=auto;html=1;" edge="1" parent="mg_lDado5WLa59hIkFFq-1" source="LcfBNwEZTYmLYdUijIUJ-1" target="uPAn2zGLbVk4IkGicm5K-13">
          <mxGeometry relative="1" as="geometry" />
        </mxCell>
        <mxCell id="uPAn2zGLbVk4IkGicm5K-38" style="edgeStyle=orthogonalEdgeStyle;rounded=0;orthogonalLoop=1;jettySize=auto;html=1;" edge="1" parent="mg_lDado5WLa59hIkFFq-1" source="LcfBNwEZTYmLYdUijIUJ-1" target="uPAn2zGLbVk4IkGicm5K-10">
          <mxGeometry relative="1" as="geometry" />
        </mxCell>
        <mxCell id="142T4ie2iaDJKo53EcFc-7" value="" style="edgeStyle=orthogonalEdgeStyle;rounded=0;orthogonalLoop=1;jettySize=auto;html=1;fillColor=#fff2cc;strokeColor=#000000;" edge="1" parent="mg_lDado5WLa59hIkFFq-1" source="LcfBNwEZTYmLYdUijIUJ-1" target="142T4ie2iaDJKo53EcFc-6">
          <mxGeometry relative="1" as="geometry" />
        </mxCell>
        <mxCell id="LcfBNwEZTYmLYdUijIUJ-1" value="Transaction" style="rounded=0;whiteSpace=wrap;html=1;dashed=1;dashPattern=12 12;" vertex="1" parent="mg_lDado5WLa59hIkFFq-1">
          <mxGeometry x="610" y="500" width="120" height="60" as="geometry" />
        </mxCell>
        <mxCell id="LcfBNwEZTYmLYdUijIUJ-23" style="edgeStyle=orthogonalEdgeStyle;rounded=0;orthogonalLoop=1;jettySize=auto;html=1;endArrow=none;startFill=0;" edge="1" parent="mg_lDado5WLa59hIkFFq-1" source="LcfBNwEZTYmLYdUijIUJ-2" target="LcfBNwEZTYmLYdUijIUJ-6">
          <mxGeometry relative="1" as="geometry" />
        </mxCell>
        <mxCell id="LcfBNwEZTYmLYdUijIUJ-35" style="edgeStyle=orthogonalEdgeStyle;rounded=0;orthogonalLoop=1;jettySize=auto;html=1;" edge="1" parent="mg_lDado5WLa59hIkFFq-1" source="LcfBNwEZTYmLYdUijIUJ-2" target="LcfBNwEZTYmLYdUijIUJ-29">
          <mxGeometry relative="1" as="geometry" />
        </mxCell>
        <mxCell id="LcfBNwEZTYmLYdUijIUJ-36" style="edgeStyle=orthogonalEdgeStyle;rounded=0;orthogonalLoop=1;jettySize=auto;html=1;" edge="1" parent="mg_lDado5WLa59hIkFFq-1" source="LcfBNwEZTYmLYdUijIUJ-2" target="LcfBNwEZTYmLYdUijIUJ-28">
          <mxGeometry relative="1" as="geometry" />
        </mxCell>
        <mxCell id="LcfBNwEZTYmLYdUijIUJ-37" style="edgeStyle=orthogonalEdgeStyle;rounded=0;orthogonalLoop=1;jettySize=auto;html=1;" edge="1" parent="mg_lDado5WLa59hIkFFq-1" source="LcfBNwEZTYmLYdUijIUJ-2" target="LcfBNwEZTYmLYdUijIUJ-32">
          <mxGeometry relative="1" as="geometry" />
        </mxCell>
        <mxCell id="LcfBNwEZTYmLYdUijIUJ-38" style="edgeStyle=orthogonalEdgeStyle;rounded=0;orthogonalLoop=1;jettySize=auto;html=1;" edge="1" parent="mg_lDado5WLa59hIkFFq-1" source="LcfBNwEZTYmLYdUijIUJ-2" target="LcfBNwEZTYmLYdUijIUJ-31">
          <mxGeometry relative="1" as="geometry" />
        </mxCell>
        <mxCell id="LcfBNwEZTYmLYdUijIUJ-40" style="edgeStyle=orthogonalEdgeStyle;rounded=0;orthogonalLoop=1;jettySize=auto;html=1;" edge="1" parent="mg_lDado5WLa59hIkFFq-1" source="LcfBNwEZTYmLYdUijIUJ-2" target="LcfBNwEZTYmLYdUijIUJ-33">
          <mxGeometry relative="1" as="geometry" />
        </mxCell>
        <mxCell id="uPAn2zGLbVk4IkGicm5K-0" style="edgeStyle=orthogonalEdgeStyle;rounded=0;orthogonalLoop=1;jettySize=auto;html=1;" edge="1" parent="mg_lDado5WLa59hIkFFq-1" source="LcfBNwEZTYmLYdUijIUJ-2" target="LcfBNwEZTYmLYdUijIUJ-44">
          <mxGeometry relative="1" as="geometry" />
        </mxCell>
        <mxCell id="uPAn2zGLbVk4IkGicm5K-1" style="edgeStyle=orthogonalEdgeStyle;rounded=0;orthogonalLoop=1;jettySize=auto;html=1;" edge="1" parent="mg_lDado5WLa59hIkFFq-1" source="LcfBNwEZTYmLYdUijIUJ-2" target="LcfBNwEZTYmLYdUijIUJ-43">
          <mxGeometry relative="1" as="geometry" />
        </mxCell>
        <mxCell id="uPAn2zGLbVk4IkGicm5K-2" style="edgeStyle=orthogonalEdgeStyle;rounded=0;orthogonalLoop=1;jettySize=auto;html=1;" edge="1" parent="mg_lDado5WLa59hIkFFq-1" source="LcfBNwEZTYmLYdUijIUJ-2" target="LcfBNwEZTYmLYdUijIUJ-41">
          <mxGeometry relative="1" as="geometry" />
        </mxCell>
        <mxCell id="uPAn2zGLbVk4IkGicm5K-3" style="edgeStyle=orthogonalEdgeStyle;rounded=0;orthogonalLoop=1;jettySize=auto;html=1;" edge="1" parent="mg_lDado5WLa59hIkFFq-1" source="LcfBNwEZTYmLYdUijIUJ-2" target="LcfBNwEZTYmLYdUijIUJ-42">
          <mxGeometry relative="1" as="geometry">
            <mxPoint x="730" y="180" as="targetPoint" />
          </mxGeometry>
        </mxCell>
        <mxCell id="uPAn2zGLbVk4IkGicm5K-4" style="edgeStyle=orthogonalEdgeStyle;rounded=0;orthogonalLoop=1;jettySize=auto;html=1;" edge="1" parent="mg_lDado5WLa59hIkFFq-1" source="LcfBNwEZTYmLYdUijIUJ-32" target="LcfBNwEZTYmLYdUijIUJ-30">
          <mxGeometry relative="1" as="geometry" />
        </mxCell>
        <mxCell id="142T4ie2iaDJKo53EcFc-0" value="" style="edgeStyle=orthogonalEdgeStyle;rounded=0;orthogonalLoop=1;jettySize=auto;html=1;" edge="1" parent="mg_lDado5WLa59hIkFFq-1" source="LcfBNwEZTYmLYdUijIUJ-2" target="LcfBNwEZTYmLYdUijIUJ-32">
          <mxGeometry relative="1" as="geometry" />
        </mxCell>
        <mxCell id="142T4ie2iaDJKo53EcFc-1" value="" style="edgeStyle=orthogonalEdgeStyle;rounded=0;orthogonalLoop=1;jettySize=auto;html=1;" edge="1" parent="mg_lDado5WLa59hIkFFq-1" source="LcfBNwEZTYmLYdUijIUJ-2" target="LcfBNwEZTYmLYdUijIUJ-6">
          <mxGeometry relative="1" as="geometry" />
        </mxCell>
        <mxCell id="142T4ie2iaDJKo53EcFc-4" value="" style="edgeStyle=orthogonalEdgeStyle;rounded=0;orthogonalLoop=1;jettySize=auto;html=1;" edge="1" parent="mg_lDado5WLa59hIkFFq-1" source="LcfBNwEZTYmLYdUijIUJ-2" target="142T4ie2iaDJKo53EcFc-3">
          <mxGeometry relative="1" as="geometry" />
        </mxCell>
        <mxCell id="LcfBNwEZTYmLYdUijIUJ-2" value="Account" style="rounded=0;whiteSpace=wrap;html=1;fillStyle=auto;dashed=1;dashPattern=12 12;" vertex="1" parent="mg_lDado5WLa59hIkFFq-1">
          <mxGeometry x="610" y="240" width="120" height="60" as="geometry" />
        </mxCell>
        <mxCell id="LcfBNwEZTYmLYdUijIUJ-8" value="" style="edgeStyle=orthogonalEdgeStyle;rounded=0;orthogonalLoop=1;jettySize=auto;html=1;" edge="1" parent="mg_lDado5WLa59hIkFFq-1" source="LcfBNwEZTYmLYdUijIUJ-3" target="LcfBNwEZTYmLYdUijIUJ-7">
          <mxGeometry relative="1" as="geometry" />
        </mxCell>
        <mxCell id="LcfBNwEZTYmLYdUijIUJ-9" value="" style="edgeStyle=orthogonalEdgeStyle;rounded=0;orthogonalLoop=1;jettySize=auto;html=1;" edge="1" parent="mg_lDado5WLa59hIkFFq-1" source="LcfBNwEZTYmLYdUijIUJ-3" target="LcfBNwEZTYmLYdUijIUJ-7">
          <mxGeometry relative="1" as="geometry" />
        </mxCell>
        <mxCell id="LcfBNwEZTYmLYdUijIUJ-11" value="" style="edgeStyle=orthogonalEdgeStyle;rounded=0;orthogonalLoop=1;jettySize=auto;html=1;" edge="1" parent="mg_lDado5WLa59hIkFFq-1" source="LcfBNwEZTYmLYdUijIUJ-3" target="LcfBNwEZTYmLYdUijIUJ-10">
          <mxGeometry relative="1" as="geometry" />
        </mxCell>
        <mxCell id="LcfBNwEZTYmLYdUijIUJ-12" value="" style="edgeStyle=orthogonalEdgeStyle;rounded=0;orthogonalLoop=1;jettySize=auto;html=1;" edge="1" parent="mg_lDado5WLa59hIkFFq-1" source="LcfBNwEZTYmLYdUijIUJ-3" target="LcfBNwEZTYmLYdUijIUJ-10">
          <mxGeometry relative="1" as="geometry" />
        </mxCell>
        <mxCell id="LcfBNwEZTYmLYdUijIUJ-14" value="" style="edgeStyle=orthogonalEdgeStyle;rounded=0;orthogonalLoop=1;jettySize=auto;html=1;" edge="1" parent="mg_lDado5WLa59hIkFFq-1" target="LcfBNwEZTYmLYdUijIUJ-13">
          <mxGeometry relative="1" as="geometry">
            <mxPoint x="150" y="130" as="sourcePoint" />
          </mxGeometry>
        </mxCell>
        <mxCell id="LcfBNwEZTYmLYdUijIUJ-16" value="" style="edgeStyle=orthogonalEdgeStyle;rounded=0;orthogonalLoop=1;jettySize=auto;html=1;" edge="1" parent="mg_lDado5WLa59hIkFFq-1" target="LcfBNwEZTYmLYdUijIUJ-15">
          <mxGeometry relative="1" as="geometry">
            <mxPoint x="150" y="130" as="sourcePoint" />
          </mxGeometry>
        </mxCell>
        <mxCell id="LcfBNwEZTYmLYdUijIUJ-18" value="" style="edgeStyle=orthogonalEdgeStyle;rounded=0;orthogonalLoop=1;jettySize=auto;html=1;" edge="1" parent="mg_lDado5WLa59hIkFFq-1" target="LcfBNwEZTYmLYdUijIUJ-17">
          <mxGeometry relative="1" as="geometry">
            <mxPoint x="150" y="130" as="sourcePoint" />
          </mxGeometry>
        </mxCell>
        <mxCell id="LcfBNwEZTYmLYdUijIUJ-20" value="" style="edgeStyle=orthogonalEdgeStyle;rounded=0;orthogonalLoop=1;jettySize=auto;html=1;" edge="1" parent="mg_lDado5WLa59hIkFFq-1" source="LcfBNwEZTYmLYdUijIUJ-3" target="LcfBNwEZTYmLYdUijIUJ-19">
          <mxGeometry relative="1" as="geometry" />
        </mxCell>
        <mxCell id="LcfBNwEZTYmLYdUijIUJ-21" style="edgeStyle=orthogonalEdgeStyle;rounded=0;orthogonalLoop=1;jettySize=auto;html=1;endArrow=none;startFill=0;" edge="1" parent="mg_lDado5WLa59hIkFFq-1" source="LcfBNwEZTYmLYdUijIUJ-3" target="LcfBNwEZTYmLYdUijIUJ-5">
          <mxGeometry relative="1" as="geometry">
            <Array as="points">
              <mxPoint x="190" y="270" />
            </Array>
          </mxGeometry>
        </mxCell>
        <mxCell id="LcfBNwEZTYmLYdUijIUJ-3" value="User" style="rounded=0;whiteSpace=wrap;html=1;" vertex="1" parent="mg_lDado5WLa59hIkFFq-1">
          <mxGeometry x="130" y="160" width="120" height="60" as="geometry" />
        </mxCell>
        <mxCell id="uPAn2zGLbVk4IkGicm5K-6" style="edgeStyle=orthogonalEdgeStyle;rounded=0;orthogonalLoop=1;jettySize=auto;html=1;endArrow=none;startFill=0;" edge="1" parent="mg_lDado5WLa59hIkFFq-1" source="LcfBNwEZTYmLYdUijIUJ-4" target="LcfBNwEZTYmLYdUijIUJ-0">
          <mxGeometry relative="1" as="geometry" />
        </mxCell>
        <mxCell id="LcfBNwEZTYmLYdUijIUJ-4" value="belongsTo" style="rhombus;whiteSpace=wrap;html=1;" vertex="1" parent="mg_lDado5WLa59hIkFFq-1">
          <mxGeometry x="420" y="490" width="130" height="80" as="geometry" />
        </mxCell>
        <mxCell id="LcfBNwEZTYmLYdUijIUJ-22" style="edgeStyle=orthogonalEdgeStyle;rounded=0;orthogonalLoop=1;jettySize=auto;html=1;endArrow=none;startFill=0;" edge="1" parent="mg_lDado5WLa59hIkFFq-1" source="LcfBNwEZTYmLYdUijIUJ-5" target="LcfBNwEZTYmLYdUijIUJ-2">
          <mxGeometry relative="1" as="geometry" />
        </mxCell>
        <mxCell id="LcfBNwEZTYmLYdUijIUJ-5" value="has" style="rhombus;whiteSpace=wrap;html=1;" vertex="1" parent="mg_lDado5WLa59hIkFFq-1">
          <mxGeometry x="360" y="230" width="150" height="80" as="geometry" />
        </mxCell>
        <mxCell id="LcfBNwEZTYmLYdUijIUJ-6" value="has" style="rhombus;whiteSpace=wrap;html=1;" vertex="1" parent="mg_lDado5WLa59hIkFFq-1">
          <mxGeometry x="590" y="370" width="160" height="80" as="geometry" />
        </mxCell>
        <mxCell id="LcfBNwEZTYmLYdUijIUJ-7" value="email" style="ellipse;whiteSpace=wrap;html=1;rounded=0;" vertex="1" parent="mg_lDado5WLa59hIkFFq-1">
          <mxGeometry x="-40" y="-40" width="80" height="80" as="geometry" />
        </mxCell>
        <mxCell id="LcfBNwEZTYmLYdUijIUJ-10" value="id" style="ellipse;whiteSpace=wrap;html=1;rounded=0;fillColor=#f8cecc;strokeColor=#b85450;" vertex="1" parent="mg_lDado5WLa59hIkFFq-1">
          <mxGeometry y="40" width="80" height="80" as="geometry" />
        </mxCell>
        <mxCell id="LcfBNwEZTYmLYdUijIUJ-13" value="password" style="ellipse;whiteSpace=wrap;html=1;rounded=0;" vertex="1" parent="mg_lDado5WLa59hIkFFq-1">
          <mxGeometry x="40" y="-50" width="80" height="80" as="geometry" />
        </mxCell>
        <mxCell id="LcfBNwEZTYmLYdUijIUJ-15" value="createdAt" style="ellipse;whiteSpace=wrap;html=1;rounded=0;" vertex="1" parent="mg_lDado5WLa59hIkFFq-1">
          <mxGeometry x="190" y="-10" width="80" height="80" as="geometry" />
        </mxCell>
        <mxCell id="LcfBNwEZTYmLYdUijIUJ-17" value="updatedAt" style="ellipse;whiteSpace=wrap;html=1;rounded=0;" vertex="1" parent="mg_lDado5WLa59hIkFFq-1">
          <mxGeometry x="110" y="-20" width="80" height="80" as="geometry" />
        </mxCell>
        <mxCell id="LcfBNwEZTYmLYdUijIUJ-19" value="isActive" style="ellipse;whiteSpace=wrap;html=1;rounded=0;" vertex="1" parent="mg_lDado5WLa59hIkFFq-1">
          <mxGeometry x="270" y="10" width="80" height="80" as="geometry" />
        </mxCell>
        <mxCell id="LcfBNwEZTYmLYdUijIUJ-28" value="name" style="ellipse;whiteSpace=wrap;html=1;rounded=0;" vertex="1" parent="mg_lDado5WLa59hIkFFq-1">
          <mxGeometry x="500" y="10" width="80" height="80" as="geometry" />
        </mxCell>
        <mxCell id="LcfBNwEZTYmLYdUijIUJ-29" value="id" style="ellipse;whiteSpace=wrap;html=1;rounded=0;fillColor=#f8cecc;strokeColor=#b85450;" vertex="1" parent="mg_lDado5WLa59hIkFFq-1">
          <mxGeometry x="500" y="110" width="80" height="80" as="geometry" />
        </mxCell>
        <mxCell id="LcfBNwEZTYmLYdUijIUJ-30" value="description" style="ellipse;whiteSpace=wrap;html=1;rounded=0;" vertex="1" parent="mg_lDado5WLa59hIkFFq-1">
          <mxGeometry x="590" y="-10" width="80" height="80" as="geometry" />
        </mxCell>
        <mxCell id="LcfBNwEZTYmLYdUijIUJ-31" value="createdAt" style="ellipse;whiteSpace=wrap;html=1;rounded=0;" vertex="1" parent="mg_lDado5WLa59hIkFFq-1">
          <mxGeometry x="670" y="90" width="80" height="80" as="geometry" />
        </mxCell>
        <mxCell id="LcfBNwEZTYmLYdUijIUJ-33" value="isActive" style="ellipse;whiteSpace=wrap;html=1;rounded=0;" vertex="1" parent="mg_lDado5WLa59hIkFFq-1">
          <mxGeometry x="740" y="140" width="80" height="80" as="geometry" />
        </mxCell>
        <mxCell id="LcfBNwEZTYmLYdUijIUJ-41" value="amountLastUpdate" style="ellipse;whiteSpace=wrap;html=1;rounded=0;" vertex="1" parent="mg_lDado5WLa59hIkFFq-1">
          <mxGeometry x="780" y="-90" width="120" height="110" as="geometry" />
        </mxCell>
        <mxCell id="LcfBNwEZTYmLYdUijIUJ-42" value="type" style="ellipse;whiteSpace=wrap;html=1;rounded=0;" vertex="1" parent="mg_lDado5WLa59hIkFFq-1">
          <mxGeometry x="690" y="-10" width="80" height="80" as="geometry" />
        </mxCell>
        <mxCell id="LcfBNwEZTYmLYdUijIUJ-43" value="expectedAmount" style="ellipse;whiteSpace=wrap;html=1;rounded=0;" vertex="1" parent="mg_lDado5WLa59hIkFFq-1">
          <mxGeometry x="870" y="30" width="110" height="100" as="geometry" />
        </mxCell>
        <mxCell id="LcfBNwEZTYmLYdUijIUJ-44" value="confirmedAmount" style="ellipse;whiteSpace=wrap;html=1;rounded=0;" vertex="1" parent="mg_lDado5WLa59hIkFFq-1">
          <mxGeometry x="870" y="130" width="120" height="100" as="geometry" />
        </mxCell>
        <mxCell id="uPAn2zGLbVk4IkGicm5K-10" value="executionDate" style="ellipse;whiteSpace=wrap;html=1;rounded=0;" vertex="1" parent="mg_lDado5WLa59hIkFFq-1">
          <mxGeometry x="700" y="690" width="80" height="80" as="geometry" />
        </mxCell>
        <mxCell id="uPAn2zGLbVk4IkGicm5K-11" value="id" style="ellipse;whiteSpace=wrap;html=1;rounded=0;fillColor=#f8cecc;strokeColor=#b85450;" vertex="1" parent="mg_lDado5WLa59hIkFFq-1">
          <mxGeometry x="500" y="780" width="80" height="80" as="geometry" />
        </mxCell>
        <mxCell id="uPAn2zGLbVk4IkGicm5K-12" value="isConfirmed" style="ellipse;whiteSpace=wrap;html=1;rounded=0;" vertex="1" parent="mg_lDado5WLa59hIkFFq-1">
          <mxGeometry x="850" y="420" width="80" height="80" as="geometry" />
        </mxCell>
        <mxCell id="uPAn2zGLbVk4IkGicm5K-13" value="createdAt" style="ellipse;whiteSpace=wrap;html=1;rounded=0;" vertex="1" parent="mg_lDado5WLa59hIkFFq-1">
          <mxGeometry x="540" y="690" width="80" height="80" as="geometry" />
        </mxCell>
        <mxCell id="uPAn2zGLbVk4IkGicm5K-14" value="updatedAt" style="ellipse;whiteSpace=wrap;html=1;rounded=0;" vertex="1" parent="mg_lDado5WLa59hIkFFq-1">
          <mxGeometry x="620" y="690" width="80" height="80" as="geometry" />
        </mxCell>
        <mxCell id="uPAn2zGLbVk4IkGicm5K-15" value="amount" style="ellipse;whiteSpace=wrap;html=1;rounded=0;" vertex="1" parent="mg_lDado5WLa59hIkFFq-1">
          <mxGeometry x="780" y="690" width="80" height="80" as="geometry" />
        </mxCell>
        <mxCell id="uPAn2zGLbVk4IkGicm5K-16" value="name" style="ellipse;whiteSpace=wrap;html=1;rounded=0;" vertex="1" parent="mg_lDado5WLa59hIkFFq-1">
          <mxGeometry x="665" y="780" width="80" height="80" as="geometry" />
        </mxCell>
        <mxCell id="uPAn2zGLbVk4IkGicm5K-17" value="description" style="ellipse;whiteSpace=wrap;html=1;rounded=0;" vertex="1" parent="mg_lDado5WLa59hIkFFq-1">
          <mxGeometry x="820" y="780" width="80" height="80" as="geometry" />
        </mxCell>
        <mxCell id="uPAn2zGLbVk4IkGicm5K-18" value="categoryId" style="ellipse;whiteSpace=wrap;html=1;rounded=0;fillColor=#fff2cc;strokeColor=#d6b656;" vertex="1" parent="mg_lDado5WLa59hIkFFq-1">
          <mxGeometry x="745" y="780" width="80" height="80" as="geometry" />
        </mxCell>
        <mxCell id="uPAn2zGLbVk4IkGicm5K-19" value="isRecurrent" style="ellipse;whiteSpace=wrap;html=1;rounded=0;" vertex="1" parent="mg_lDado5WLa59hIkFFq-1">
          <mxGeometry x="1010" y="540" width="80" height="80" as="geometry" />
        </mxCell>
        <mxCell id="uPAn2zGLbVk4IkGicm5K-20" value="recurrencyType" style="ellipse;whiteSpace=wrap;html=1;rounded=0;" vertex="1" parent="mg_lDado5WLa59hIkFFq-1">
          <mxGeometry x="930" y="620" width="100" height="80" as="geometry" />
        </mxCell>
        <mxCell id="uPAn2zGLbVk4IkGicm5K-21" value="recurrencyEnd" style="ellipse;whiteSpace=wrap;html=1;rounded=0;" vertex="1" parent="mg_lDado5WLa59hIkFFq-1">
          <mxGeometry x="870" y="690" width="100" height="80" as="geometry" />
        </mxCell>
        <mxCell id="uPAn2zGLbVk4IkGicm5K-22" value="transactionReference" style="ellipse;whiteSpace=wrap;html=1;rounded=0;" vertex="1" parent="mg_lDado5WLa59hIkFFq-1">
          <mxGeometry x="950" y="400" width="130" height="80" as="geometry" />
        </mxCell>
        <mxCell id="uPAn2zGLbVk4IkGicm5K-23" value="relatedAccount" style="ellipse;whiteSpace=wrap;html=1;rounded=0;" vertex="1" parent="mg_lDado5WLa59hIkFFq-1">
          <mxGeometry x="735" y="420" width="100" height="80" as="geometry" />
        </mxCell>
        <mxCell id="uPAn2zGLbVk4IkGicm5K-39" value="name" style="ellipse;whiteSpace=wrap;html=1;rounded=0;" vertex="1" parent="mg_lDado5WLa59hIkFFq-1">
          <mxGeometry x="110" y="600" width="80" height="80" as="geometry" />
        </mxCell>
        <mxCell id="uPAn2zGLbVk4IkGicm5K-41" value="id" style="ellipse;whiteSpace=wrap;html=1;rounded=0;fillColor=#f8cecc;strokeColor=#b85450;" vertex="1" parent="mg_lDado5WLa59hIkFFq-1">
          <mxGeometry x="110" y="490" width="80" height="80" as="geometry" />
        </mxCell>
        <mxCell id="uPAn2zGLbVk4IkGicm5K-43" value="" style="edgeStyle=orthogonalEdgeStyle;rounded=0;orthogonalLoop=1;jettySize=auto;html=1;" edge="1" parent="mg_lDado5WLa59hIkFFq-1" source="LcfBNwEZTYmLYdUijIUJ-2" target="LcfBNwEZTYmLYdUijIUJ-32">
          <mxGeometry relative="1" as="geometry">
            <mxPoint x="670" y="240" as="sourcePoint" />
            <mxPoint x="630" y="70" as="targetPoint" />
          </mxGeometry>
        </mxCell>
        <mxCell id="LcfBNwEZTYmLYdUijIUJ-32" value="updatedAt" style="ellipse;whiteSpace=wrap;html=1;rounded=0;" vertex="1" parent="mg_lDado5WLa59hIkFFq-1">
          <mxGeometry x="580" y="100" width="80" height="80" as="geometry" />
        </mxCell>
        <mxCell id="142T4ie2iaDJKo53EcFc-3" value="userId" style="ellipse;whiteSpace=wrap;html=1;rounded=0;fillStyle=auto;fillColor=#fff2cc;strokeColor=#d6b656;" vertex="1" parent="mg_lDado5WLa59hIkFFq-1">
          <mxGeometry x="650" y="-120" width="80" height="80" as="geometry" />
        </mxCell>
        <mxCell id="142T4ie2iaDJKo53EcFc-6" value="accountId" style="ellipse;whiteSpace=wrap;html=1;rounded=0;fillColor=#fff2cc;strokeColor=#d6b656;" vertex="1" parent="mg_lDado5WLa59hIkFFq-1">
          <mxGeometry x="580" y="780" width="80" height="80" as="geometry" />
        </mxCell>
      </root>
    </mxGraphModel>
  </diagram>
  <diagram id="R2lEEEUBdFMjLlhIrx00" name="EntityLogicModel">
    <mxGraphModel dx="1428" dy="843" grid="1" gridSize="10" guides="1" tooltips="1" connect="1" arrows="1" fold="1" page="1" pageScale="1" pageWidth="850" pageHeight="1100" math="0" shadow="0" extFonts="Permanent Marker^https://fonts.googleapis.com/css?family=Permanent+Marker">
      <root>
        <mxCell id="0" />
        <mxCell id="1" parent="0" />
        <mxCell id="QKG5HHSuyWhP3_sXABJZ-4" style="edgeStyle=orthogonalEdgeStyle;rounded=0;orthogonalLoop=1;jettySize=auto;html=1;endArrow=ERone;endFill=0;startArrow=ERone;startFill=0;" edge="1" parent="1" source="C-vyLk0tnHw3VtMMgP7b-2" target="C-vyLk0tnHw3VtMMgP7b-23">
          <mxGeometry relative="1" as="geometry" />
        </mxCell>
        <mxCell id="C-vyLk0tnHw3VtMMgP7b-2" value="User" style="shape=table;startSize=30;container=1;collapsible=1;childLayout=tableLayout;fixedRows=1;rowLines=0;fontStyle=1;align=center;resizeLast=1;" parent="1" vertex="1">
          <mxGeometry x="450" y="102" width="310" height="220" as="geometry" />
        </mxCell>
        <mxCell id="C-vyLk0tnHw3VtMMgP7b-3" value="" style="shape=partialRectangle;collapsible=0;dropTarget=0;pointerEvents=0;fillColor=none;points=[[0,0.5],[1,0.5]];portConstraint=eastwest;top=0;left=0;right=0;bottom=1;" parent="C-vyLk0tnHw3VtMMgP7b-2" vertex="1">
          <mxGeometry y="30" width="310" height="30" as="geometry" />
        </mxCell>
        <mxCell id="C-vyLk0tnHw3VtMMgP7b-4" value="PK" style="shape=partialRectangle;overflow=hidden;connectable=0;fillColor=none;top=0;left=0;bottom=0;right=0;fontStyle=1;" parent="C-vyLk0tnHw3VtMMgP7b-3" vertex="1">
          <mxGeometry width="30" height="30" as="geometry">
            <mxRectangle width="30" height="30" as="alternateBounds" />
          </mxGeometry>
        </mxCell>
        <mxCell id="C-vyLk0tnHw3VtMMgP7b-5" value="user_id UUID NOT NULL " style="shape=partialRectangle;overflow=hidden;connectable=0;fillColor=none;top=0;left=0;bottom=0;right=0;align=left;spacingLeft=6;fontStyle=5;" parent="C-vyLk0tnHw3VtMMgP7b-3" vertex="1">
          <mxGeometry x="30" width="280" height="30" as="geometry">
            <mxRectangle width="280" height="30" as="alternateBounds" />
          </mxGeometry>
        </mxCell>
        <mxCell id="C-vyLk0tnHw3VtMMgP7b-6" value="" style="shape=partialRectangle;collapsible=0;dropTarget=0;pointerEvents=0;fillColor=none;points=[[0,0.5],[1,0.5]];portConstraint=eastwest;top=0;left=0;right=0;bottom=0;" parent="C-vyLk0tnHw3VtMMgP7b-2" vertex="1">
          <mxGeometry y="60" width="310" height="30" as="geometry" />
        </mxCell>
        <mxCell id="C-vyLk0tnHw3VtMMgP7b-7" value="" style="shape=partialRectangle;overflow=hidden;connectable=0;fillColor=none;top=0;left=0;bottom=0;right=0;" parent="C-vyLk0tnHw3VtMMgP7b-6" vertex="1">
          <mxGeometry width="30" height="30" as="geometry">
            <mxRectangle width="30" height="30" as="alternateBounds" />
          </mxGeometry>
        </mxCell>
        <mxCell id="C-vyLk0tnHw3VtMMgP7b-8" value="email String  NOT NULL" style="shape=partialRectangle;overflow=hidden;connectable=0;fillColor=none;top=0;left=0;bottom=0;right=0;align=left;spacingLeft=6;" parent="C-vyLk0tnHw3VtMMgP7b-6" vertex="1">
          <mxGeometry x="30" width="280" height="30" as="geometry">
            <mxRectangle width="280" height="30" as="alternateBounds" />
          </mxGeometry>
        </mxCell>
        <mxCell id="C-vyLk0tnHw3VtMMgP7b-9" value="" style="shape=partialRectangle;collapsible=0;dropTarget=0;pointerEvents=0;fillColor=none;points=[[0,0.5],[1,0.5]];portConstraint=eastwest;top=0;left=0;right=0;bottom=0;" parent="C-vyLk0tnHw3VtMMgP7b-2" vertex="1">
          <mxGeometry y="90" width="310" height="30" as="geometry" />
        </mxCell>
        <mxCell id="C-vyLk0tnHw3VtMMgP7b-10" value="" style="shape=partialRectangle;overflow=hidden;connectable=0;fillColor=none;top=0;left=0;bottom=0;right=0;" parent="C-vyLk0tnHw3VtMMgP7b-9" vertex="1">
          <mxGeometry width="30" height="30" as="geometry">
            <mxRectangle width="30" height="30" as="alternateBounds" />
          </mxGeometry>
        </mxCell>
        <mxCell id="C-vyLk0tnHw3VtMMgP7b-11" value="password String (BCRYPT) NOT NULL" style="shape=partialRectangle;overflow=hidden;connectable=0;fillColor=none;top=0;left=0;bottom=0;right=0;align=left;spacingLeft=6;" parent="C-vyLk0tnHw3VtMMgP7b-9" vertex="1">
          <mxGeometry x="30" width="280" height="30" as="geometry">
            <mxRectangle width="280" height="30" as="alternateBounds" />
          </mxGeometry>
        </mxCell>
        <mxCell id="QKG5HHSuyWhP3_sXABJZ-53" style="shape=partialRectangle;collapsible=0;dropTarget=0;pointerEvents=0;fillColor=none;points=[[0,0.5],[1,0.5]];portConstraint=eastwest;top=0;left=0;right=0;bottom=0;" vertex="1" parent="C-vyLk0tnHw3VtMMgP7b-2">
          <mxGeometry y="120" width="310" height="30" as="geometry" />
        </mxCell>
        <mxCell id="QKG5HHSuyWhP3_sXABJZ-54" style="shape=partialRectangle;overflow=hidden;connectable=0;fillColor=none;top=0;left=0;bottom=0;right=0;" vertex="1" parent="QKG5HHSuyWhP3_sXABJZ-53">
          <mxGeometry width="30" height="30" as="geometry">
            <mxRectangle width="30" height="30" as="alternateBounds" />
          </mxGeometry>
        </mxCell>
        <mxCell id="QKG5HHSuyWhP3_sXABJZ-55" value="isActive bool NOT NULL DEFAULT TRUE" style="shape=partialRectangle;overflow=hidden;connectable=0;fillColor=none;top=0;left=0;bottom=0;right=0;align=left;spacingLeft=6;" vertex="1" parent="QKG5HHSuyWhP3_sXABJZ-53">
          <mxGeometry x="30" width="280" height="30" as="geometry">
            <mxRectangle width="280" height="30" as="alternateBounds" />
          </mxGeometry>
        </mxCell>
        <mxCell id="QKG5HHSuyWhP3_sXABJZ-56" style="shape=partialRectangle;collapsible=0;dropTarget=0;pointerEvents=0;fillColor=none;points=[[0,0.5],[1,0.5]];portConstraint=eastwest;top=0;left=0;right=0;bottom=0;" vertex="1" parent="C-vyLk0tnHw3VtMMgP7b-2">
          <mxGeometry y="150" width="310" height="30" as="geometry" />
        </mxCell>
        <mxCell id="QKG5HHSuyWhP3_sXABJZ-57" style="shape=partialRectangle;overflow=hidden;connectable=0;fillColor=none;top=0;left=0;bottom=0;right=0;" vertex="1" parent="QKG5HHSuyWhP3_sXABJZ-56">
          <mxGeometry width="30" height="30" as="geometry">
            <mxRectangle width="30" height="30" as="alternateBounds" />
          </mxGeometry>
        </mxCell>
        <mxCell id="QKG5HHSuyWhP3_sXABJZ-58" value="createdAt Timestamp NOT NULL" style="shape=partialRectangle;overflow=hidden;connectable=0;fillColor=none;top=0;left=0;bottom=0;right=0;align=left;spacingLeft=6;" vertex="1" parent="QKG5HHSuyWhP3_sXABJZ-56">
          <mxGeometry x="30" width="280" height="30" as="geometry">
            <mxRectangle width="280" height="30" as="alternateBounds" />
          </mxGeometry>
        </mxCell>
        <mxCell id="QKG5HHSuyWhP3_sXABJZ-59" style="shape=partialRectangle;collapsible=0;dropTarget=0;pointerEvents=0;fillColor=none;points=[[0,0.5],[1,0.5]];portConstraint=eastwest;top=0;left=0;right=0;bottom=0;" vertex="1" parent="C-vyLk0tnHw3VtMMgP7b-2">
          <mxGeometry y="180" width="310" height="30" as="geometry" />
        </mxCell>
        <mxCell id="QKG5HHSuyWhP3_sXABJZ-60" style="shape=partialRectangle;overflow=hidden;connectable=0;fillColor=none;top=0;left=0;bottom=0;right=0;" vertex="1" parent="QKG5HHSuyWhP3_sXABJZ-59">
          <mxGeometry width="30" height="30" as="geometry">
            <mxRectangle width="30" height="30" as="alternateBounds" />
          </mxGeometry>
        </mxCell>
        <mxCell id="QKG5HHSuyWhP3_sXABJZ-61" value="updatedAt Timestamp NOT NULL" style="shape=partialRectangle;overflow=hidden;connectable=0;fillColor=none;top=0;left=0;bottom=0;right=0;align=left;spacingLeft=6;" vertex="1" parent="QKG5HHSuyWhP3_sXABJZ-59">
          <mxGeometry x="30" width="280" height="30" as="geometry">
            <mxRectangle width="280" height="30" as="alternateBounds" />
          </mxGeometry>
        </mxCell>
        <mxCell id="C-vyLk0tnHw3VtMMgP7b-13" value="Transaction" style="shape=table;startSize=30;container=1;collapsible=1;childLayout=tableLayout;fixedRows=1;rowLines=0;fontStyle=1;align=center;resizeLast=1;" parent="1" vertex="1">
          <mxGeometry x="50" y="490" width="310" height="460" as="geometry" />
        </mxCell>
        <mxCell id="C-vyLk0tnHw3VtMMgP7b-14" value="" style="shape=partialRectangle;collapsible=0;dropTarget=0;pointerEvents=0;fillColor=none;points=[[0,0.5],[1,0.5]];portConstraint=eastwest;top=0;left=0;right=0;bottom=1;" parent="C-vyLk0tnHw3VtMMgP7b-13" vertex="1">
          <mxGeometry y="30" width="310" height="30" as="geometry" />
        </mxCell>
        <mxCell id="C-vyLk0tnHw3VtMMgP7b-15" value="PK" style="shape=partialRectangle;overflow=hidden;connectable=0;fillColor=none;top=0;left=0;bottom=0;right=0;fontStyle=1;" parent="C-vyLk0tnHw3VtMMgP7b-14" vertex="1">
          <mxGeometry width="30" height="30" as="geometry">
            <mxRectangle width="30" height="30" as="alternateBounds" />
          </mxGeometry>
        </mxCell>
        <mxCell id="C-vyLk0tnHw3VtMMgP7b-16" value="transaction_id UUID NOT NULL " style="shape=partialRectangle;overflow=hidden;connectable=0;fillColor=none;top=0;left=0;bottom=0;right=0;align=left;spacingLeft=6;fontStyle=5;" parent="C-vyLk0tnHw3VtMMgP7b-14" vertex="1">
          <mxGeometry x="30" width="280" height="30" as="geometry">
            <mxRectangle width="280" height="30" as="alternateBounds" />
          </mxGeometry>
        </mxCell>
        <mxCell id="C-vyLk0tnHw3VtMMgP7b-17" value="" style="shape=partialRectangle;collapsible=0;dropTarget=0;pointerEvents=0;fillColor=none;points=[[0,0.5],[1,0.5]];portConstraint=eastwest;top=0;left=0;right=0;bottom=0;" parent="C-vyLk0tnHw3VtMMgP7b-13" vertex="1">
          <mxGeometry y="60" width="310" height="30" as="geometry" />
        </mxCell>
        <mxCell id="C-vyLk0tnHw3VtMMgP7b-18" value="FK1" style="shape=partialRectangle;overflow=hidden;connectable=0;fillColor=none;top=0;left=0;bottom=0;right=0;" parent="C-vyLk0tnHw3VtMMgP7b-17" vertex="1">
          <mxGeometry width="30" height="30" as="geometry">
            <mxRectangle width="30" height="30" as="alternateBounds" />
          </mxGeometry>
        </mxCell>
        <mxCell id="C-vyLk0tnHw3VtMMgP7b-19" value="account_id UUID NOT NULL" style="shape=partialRectangle;overflow=hidden;connectable=0;fillColor=none;top=0;left=0;bottom=0;right=0;align=left;spacingLeft=6;" parent="C-vyLk0tnHw3VtMMgP7b-17" vertex="1">
          <mxGeometry x="30" width="280" height="30" as="geometry">
            <mxRectangle width="280" height="30" as="alternateBounds" />
          </mxGeometry>
        </mxCell>
        <mxCell id="C-vyLk0tnHw3VtMMgP7b-20" value="" style="shape=partialRectangle;collapsible=0;dropTarget=0;pointerEvents=0;fillColor=none;points=[[0,0.5],[1,0.5]];portConstraint=eastwest;top=0;left=0;right=0;bottom=0;" parent="C-vyLk0tnHw3VtMMgP7b-13" vertex="1">
          <mxGeometry y="90" width="310" height="30" as="geometry" />
        </mxCell>
        <mxCell id="C-vyLk0tnHw3VtMMgP7b-21" value="" style="shape=partialRectangle;overflow=hidden;connectable=0;fillColor=none;top=0;left=0;bottom=0;right=0;" parent="C-vyLk0tnHw3VtMMgP7b-20" vertex="1">
          <mxGeometry width="30" height="30" as="geometry">
            <mxRectangle width="30" height="30" as="alternateBounds" />
          </mxGeometry>
        </mxCell>
        <mxCell id="C-vyLk0tnHw3VtMMgP7b-22" value="name String NOT NULL" style="shape=partialRectangle;overflow=hidden;connectable=0;fillColor=none;top=0;left=0;bottom=0;right=0;align=left;spacingLeft=6;" parent="C-vyLk0tnHw3VtMMgP7b-20" vertex="1">
          <mxGeometry x="30" width="280" height="30" as="geometry">
            <mxRectangle width="280" height="30" as="alternateBounds" />
          </mxGeometry>
        </mxCell>
        <mxCell id="QKG5HHSuyWhP3_sXABJZ-5" value="" style="shape=partialRectangle;collapsible=0;dropTarget=0;pointerEvents=0;fillColor=none;points=[[0,0.5],[1,0.5]];portConstraint=eastwest;top=0;left=0;right=0;bottom=0;" vertex="1" parent="C-vyLk0tnHw3VtMMgP7b-13">
          <mxGeometry y="120" width="310" height="30" as="geometry" />
        </mxCell>
        <mxCell id="QKG5HHSuyWhP3_sXABJZ-6" value="" style="shape=partialRectangle;overflow=hidden;connectable=0;fillColor=none;top=0;left=0;bottom=0;right=0;" vertex="1" parent="QKG5HHSuyWhP3_sXABJZ-5">
          <mxGeometry width="30" height="30" as="geometry">
            <mxRectangle width="30" height="30" as="alternateBounds" />
          </mxGeometry>
        </mxCell>
        <mxCell id="QKG5HHSuyWhP3_sXABJZ-7" value="description String" style="shape=partialRectangle;overflow=hidden;connectable=0;fillColor=none;top=0;left=0;bottom=0;right=0;align=left;spacingLeft=6;" vertex="1" parent="QKG5HHSuyWhP3_sXABJZ-5">
          <mxGeometry x="30" width="280" height="30" as="geometry">
            <mxRectangle width="280" height="30" as="alternateBounds" />
          </mxGeometry>
        </mxCell>
        <mxCell id="QKG5HHSuyWhP3_sXABJZ-9" style="shape=partialRectangle;collapsible=0;dropTarget=0;pointerEvents=0;fillColor=none;points=[[0,0.5],[1,0.5]];portConstraint=eastwest;top=0;left=0;right=0;bottom=0;" vertex="1" parent="C-vyLk0tnHw3VtMMgP7b-13">
          <mxGeometry y="150" width="310" height="30" as="geometry" />
        </mxCell>
        <mxCell id="QKG5HHSuyWhP3_sXABJZ-10" style="shape=partialRectangle;overflow=hidden;connectable=0;fillColor=none;top=0;left=0;bottom=0;right=0;" vertex="1" parent="QKG5HHSuyWhP3_sXABJZ-9">
          <mxGeometry width="30" height="30" as="geometry">
            <mxRectangle width="30" height="30" as="alternateBounds" />
          </mxGeometry>
        </mxCell>
        <mxCell id="QKG5HHSuyWhP3_sXABJZ-11" value="amount BigDecimal NOT NULL" style="shape=partialRectangle;overflow=hidden;connectable=0;fillColor=none;top=0;left=0;bottom=0;right=0;align=left;spacingLeft=6;" vertex="1" parent="QKG5HHSuyWhP3_sXABJZ-9">
          <mxGeometry x="30" width="280" height="30" as="geometry">
            <mxRectangle width="280" height="30" as="alternateBounds" />
          </mxGeometry>
        </mxCell>
        <mxCell id="QKG5HHSuyWhP3_sXABJZ-12" style="shape=partialRectangle;collapsible=0;dropTarget=0;pointerEvents=0;fillColor=none;points=[[0,0.5],[1,0.5]];portConstraint=eastwest;top=0;left=0;right=0;bottom=0;" vertex="1" parent="C-vyLk0tnHw3VtMMgP7b-13">
          <mxGeometry y="180" width="310" height="30" as="geometry" />
        </mxCell>
        <mxCell id="QKG5HHSuyWhP3_sXABJZ-13" value="FK2" style="shape=partialRectangle;overflow=hidden;connectable=0;fillColor=none;top=0;left=0;bottom=0;right=0;" vertex="1" parent="QKG5HHSuyWhP3_sXABJZ-12">
          <mxGeometry width="30" height="30" as="geometry">
            <mxRectangle width="30" height="30" as="alternateBounds" />
          </mxGeometry>
        </mxCell>
        <mxCell id="QKG5HHSuyWhP3_sXABJZ-14" value="category_id UUID NOT NULL" style="shape=partialRectangle;overflow=hidden;connectable=0;fillColor=none;top=0;left=0;bottom=0;right=0;align=left;spacingLeft=6;" vertex="1" parent="QKG5HHSuyWhP3_sXABJZ-12">
          <mxGeometry x="30" width="280" height="30" as="geometry">
            <mxRectangle width="280" height="30" as="alternateBounds" />
          </mxGeometry>
        </mxCell>
        <mxCell id="QKG5HHSuyWhP3_sXABJZ-15" style="shape=partialRectangle;collapsible=0;dropTarget=0;pointerEvents=0;fillColor=none;points=[[0,0.5],[1,0.5]];portConstraint=eastwest;top=0;left=0;right=0;bottom=0;" vertex="1" parent="C-vyLk0tnHw3VtMMgP7b-13">
          <mxGeometry y="210" width="310" height="30" as="geometry" />
        </mxCell>
        <mxCell id="QKG5HHSuyWhP3_sXABJZ-16" style="shape=partialRectangle;overflow=hidden;connectable=0;fillColor=none;top=0;left=0;bottom=0;right=0;" vertex="1" parent="QKG5HHSuyWhP3_sXABJZ-15">
          <mxGeometry width="30" height="30" as="geometry">
            <mxRectangle width="30" height="30" as="alternateBounds" />
          </mxGeometry>
        </mxCell>
        <mxCell id="QKG5HHSuyWhP3_sXABJZ-17" value="createdAt Timestamp NOT NULL" style="shape=partialRectangle;overflow=hidden;connectable=0;fillColor=none;top=0;left=0;bottom=0;right=0;align=left;spacingLeft=6;" vertex="1" parent="QKG5HHSuyWhP3_sXABJZ-15">
          <mxGeometry x="30" width="280" height="30" as="geometry">
            <mxRectangle width="280" height="30" as="alternateBounds" />
          </mxGeometry>
        </mxCell>
        <mxCell id="QKG5HHSuyWhP3_sXABJZ-18" style="shape=partialRectangle;collapsible=0;dropTarget=0;pointerEvents=0;fillColor=none;points=[[0,0.5],[1,0.5]];portConstraint=eastwest;top=0;left=0;right=0;bottom=0;" vertex="1" parent="C-vyLk0tnHw3VtMMgP7b-13">
          <mxGeometry y="240" width="310" height="30" as="geometry" />
        </mxCell>
        <mxCell id="QKG5HHSuyWhP3_sXABJZ-19" style="shape=partialRectangle;overflow=hidden;connectable=0;fillColor=none;top=0;left=0;bottom=0;right=0;" vertex="1" parent="QKG5HHSuyWhP3_sXABJZ-18">
          <mxGeometry width="30" height="30" as="geometry">
            <mxRectangle width="30" height="30" as="alternateBounds" />
          </mxGeometry>
        </mxCell>
        <mxCell id="QKG5HHSuyWhP3_sXABJZ-20" value="updatedAt Timestamp NOT NULL" style="shape=partialRectangle;overflow=hidden;connectable=0;fillColor=none;top=0;left=0;bottom=0;right=0;align=left;spacingLeft=6;" vertex="1" parent="QKG5HHSuyWhP3_sXABJZ-18">
          <mxGeometry x="30" width="280" height="30" as="geometry">
            <mxRectangle width="280" height="30" as="alternateBounds" />
          </mxGeometry>
        </mxCell>
        <mxCell id="QKG5HHSuyWhP3_sXABJZ-21" style="shape=partialRectangle;collapsible=0;dropTarget=0;pointerEvents=0;fillColor=none;points=[[0,0.5],[1,0.5]];portConstraint=eastwest;top=0;left=0;right=0;bottom=0;" vertex="1" parent="C-vyLk0tnHw3VtMMgP7b-13">
          <mxGeometry y="270" width="310" height="30" as="geometry" />
        </mxCell>
        <mxCell id="QKG5HHSuyWhP3_sXABJZ-22" style="shape=partialRectangle;overflow=hidden;connectable=0;fillColor=none;top=0;left=0;bottom=0;right=0;" vertex="1" parent="QKG5HHSuyWhP3_sXABJZ-21">
          <mxGeometry width="30" height="30" as="geometry">
            <mxRectangle width="30" height="30" as="alternateBounds" />
          </mxGeometry>
        </mxCell>
        <mxCell id="QKG5HHSuyWhP3_sXABJZ-23" value="executionDate Date NOT NULL" style="shape=partialRectangle;overflow=hidden;connectable=0;fillColor=none;top=0;left=0;bottom=0;right=0;align=left;spacingLeft=6;" vertex="1" parent="QKG5HHSuyWhP3_sXABJZ-21">
          <mxGeometry x="30" width="280" height="30" as="geometry">
            <mxRectangle width="280" height="30" as="alternateBounds" />
          </mxGeometry>
        </mxCell>
        <mxCell id="QKG5HHSuyWhP3_sXABJZ-24" style="shape=partialRectangle;collapsible=0;dropTarget=0;pointerEvents=0;fillColor=none;points=[[0,0.5],[1,0.5]];portConstraint=eastwest;top=0;left=0;right=0;bottom=0;" vertex="1" parent="C-vyLk0tnHw3VtMMgP7b-13">
          <mxGeometry y="300" width="310" height="30" as="geometry" />
        </mxCell>
        <mxCell id="QKG5HHSuyWhP3_sXABJZ-25" style="shape=partialRectangle;overflow=hidden;connectable=0;fillColor=none;top=0;left=0;bottom=0;right=0;" vertex="1" parent="QKG5HHSuyWhP3_sXABJZ-24">
          <mxGeometry width="30" height="30" as="geometry">
            <mxRectangle width="30" height="30" as="alternateBounds" />
          </mxGeometry>
        </mxCell>
        <mxCell id="QKG5HHSuyWhP3_sXABJZ-26" value="isConfirmed bool NOT NULL DEFAULT FALSE" style="shape=partialRectangle;overflow=hidden;connectable=0;fillColor=none;top=0;left=0;bottom=0;right=0;align=left;spacingLeft=6;" vertex="1" parent="QKG5HHSuyWhP3_sXABJZ-24">
          <mxGeometry x="30" width="280" height="30" as="geometry">
            <mxRectangle width="280" height="30" as="alternateBounds" />
          </mxGeometry>
        </mxCell>
        <mxCell id="QKG5HHSuyWhP3_sXABJZ-27" style="shape=partialRectangle;collapsible=0;dropTarget=0;pointerEvents=0;fillColor=none;points=[[0,0.5],[1,0.5]];portConstraint=eastwest;top=0;left=0;right=0;bottom=0;" vertex="1" parent="C-vyLk0tnHw3VtMMgP7b-13">
          <mxGeometry y="330" width="310" height="30" as="geometry" />
        </mxCell>
        <mxCell id="QKG5HHSuyWhP3_sXABJZ-28" style="shape=partialRectangle;overflow=hidden;connectable=0;fillColor=none;top=0;left=0;bottom=0;right=0;" vertex="1" parent="QKG5HHSuyWhP3_sXABJZ-27">
          <mxGeometry width="30" height="30" as="geometry">
            <mxRectangle width="30" height="30" as="alternateBounds" />
          </mxGeometry>
        </mxCell>
        <mxCell id="QKG5HHSuyWhP3_sXABJZ-29" value="isRecurrent bool NOT NULL DEFAULT FALSE" style="shape=partialRectangle;overflow=hidden;connectable=0;fillColor=none;top=0;left=0;bottom=0;right=0;align=left;spacingLeft=6;" vertex="1" parent="QKG5HHSuyWhP3_sXABJZ-27">
          <mxGeometry x="30" width="280" height="30" as="geometry">
            <mxRectangle width="280" height="30" as="alternateBounds" />
          </mxGeometry>
        </mxCell>
        <mxCell id="QKG5HHSuyWhP3_sXABJZ-30" style="shape=partialRectangle;collapsible=0;dropTarget=0;pointerEvents=0;fillColor=none;points=[[0,0.5],[1,0.5]];portConstraint=eastwest;top=0;left=0;right=0;bottom=0;" vertex="1" parent="C-vyLk0tnHw3VtMMgP7b-13">
          <mxGeometry y="360" width="310" height="30" as="geometry" />
        </mxCell>
        <mxCell id="QKG5HHSuyWhP3_sXABJZ-31" style="shape=partialRectangle;overflow=hidden;connectable=0;fillColor=none;top=0;left=0;bottom=0;right=0;" vertex="1" parent="QKG5HHSuyWhP3_sXABJZ-30">
          <mxGeometry width="30" height="30" as="geometry">
            <mxRectangle width="30" height="30" as="alternateBounds" />
          </mxGeometry>
        </mxCell>
        <mxCell id="QKG5HHSuyWhP3_sXABJZ-32" value="recurrencyType ENUM " style="shape=partialRectangle;overflow=hidden;connectable=0;fillColor=none;top=0;left=0;bottom=0;right=0;align=left;spacingLeft=6;" vertex="1" parent="QKG5HHSuyWhP3_sXABJZ-30">
          <mxGeometry x="30" width="280" height="30" as="geometry">
            <mxRectangle width="280" height="30" as="alternateBounds" />
          </mxGeometry>
        </mxCell>
        <mxCell id="QKG5HHSuyWhP3_sXABJZ-33" style="shape=partialRectangle;collapsible=0;dropTarget=0;pointerEvents=0;fillColor=none;points=[[0,0.5],[1,0.5]];portConstraint=eastwest;top=0;left=0;right=0;bottom=0;" vertex="1" parent="C-vyLk0tnHw3VtMMgP7b-13">
          <mxGeometry y="390" width="310" height="30" as="geometry" />
        </mxCell>
        <mxCell id="QKG5HHSuyWhP3_sXABJZ-34" style="shape=partialRectangle;overflow=hidden;connectable=0;fillColor=none;top=0;left=0;bottom=0;right=0;" vertex="1" parent="QKG5HHSuyWhP3_sXABJZ-33">
          <mxGeometry width="30" height="30" as="geometry">
            <mxRectangle width="30" height="30" as="alternateBounds" />
          </mxGeometry>
        </mxCell>
        <mxCell id="QKG5HHSuyWhP3_sXABJZ-35" value="recurrencyEnd Date" style="shape=partialRectangle;overflow=hidden;connectable=0;fillColor=none;top=0;left=0;bottom=0;right=0;align=left;spacingLeft=6;" vertex="1" parent="QKG5HHSuyWhP3_sXABJZ-33">
          <mxGeometry x="30" width="280" height="30" as="geometry">
            <mxRectangle width="280" height="30" as="alternateBounds" />
          </mxGeometry>
        </mxCell>
        <mxCell id="QKG5HHSuyWhP3_sXABJZ-36" style="shape=partialRectangle;collapsible=0;dropTarget=0;pointerEvents=0;fillColor=none;points=[[0,0.5],[1,0.5]];portConstraint=eastwest;top=0;left=0;right=0;bottom=0;" vertex="1" parent="C-vyLk0tnHw3VtMMgP7b-13">
          <mxGeometry y="420" width="310" height="30" as="geometry" />
        </mxCell>
        <mxCell id="QKG5HHSuyWhP3_sXABJZ-37" style="shape=partialRectangle;overflow=hidden;connectable=0;fillColor=none;top=0;left=0;bottom=0;right=0;" vertex="1" parent="QKG5HHSuyWhP3_sXABJZ-36">
          <mxGeometry width="30" height="30" as="geometry">
            <mxRectangle width="30" height="30" as="alternateBounds" />
          </mxGeometry>
        </mxCell>
        <mxCell id="QKG5HHSuyWhP3_sXABJZ-38" value="transactionReference UUID" style="shape=partialRectangle;overflow=hidden;connectable=0;fillColor=none;top=0;left=0;bottom=0;right=0;align=left;spacingLeft=6;" vertex="1" parent="QKG5HHSuyWhP3_sXABJZ-36">
          <mxGeometry x="30" width="280" height="30" as="geometry">
            <mxRectangle width="280" height="30" as="alternateBounds" />
          </mxGeometry>
        </mxCell>
        <mxCell id="QKG5HHSuyWhP3_sXABJZ-3" style="edgeStyle=orthogonalEdgeStyle;rounded=0;orthogonalLoop=1;jettySize=auto;html=1;startArrow=ERone;startFill=0;endArrow=ERzeroToMany;endFill=0;" edge="1" parent="1" source="C-vyLk0tnHw3VtMMgP7b-23" target="C-vyLk0tnHw3VtMMgP7b-13">
          <mxGeometry relative="1" as="geometry">
            <Array as="points" />
          </mxGeometry>
        </mxCell>
        <mxCell id="C-vyLk0tnHw3VtMMgP7b-23" value="Account" style="shape=table;startSize=30;container=1;collapsible=1;childLayout=tableLayout;fixedRows=1;rowLines=0;fontStyle=1;align=center;resizeLast=1;" parent="1" vertex="1">
          <mxGeometry x="40" y="45" width="330" height="365" as="geometry" />
        </mxCell>
        <mxCell id="C-vyLk0tnHw3VtMMgP7b-24" value="" style="shape=partialRectangle;collapsible=0;dropTarget=0;pointerEvents=0;fillColor=none;points=[[0,0.5],[1,0.5]];portConstraint=eastwest;top=0;left=0;right=0;bottom=1;" parent="C-vyLk0tnHw3VtMMgP7b-23" vertex="1">
          <mxGeometry y="30" width="330" height="30" as="geometry" />
        </mxCell>
        <mxCell id="C-vyLk0tnHw3VtMMgP7b-25" value="PK" style="shape=partialRectangle;overflow=hidden;connectable=0;fillColor=none;top=0;left=0;bottom=0;right=0;fontStyle=1;" parent="C-vyLk0tnHw3VtMMgP7b-24" vertex="1">
          <mxGeometry width="30" height="30" as="geometry">
            <mxRectangle width="30" height="30" as="alternateBounds" />
          </mxGeometry>
        </mxCell>
        <mxCell id="C-vyLk0tnHw3VtMMgP7b-26" value="account_id UUID NOT NULL " style="shape=partialRectangle;overflow=hidden;connectable=0;fillColor=none;top=0;left=0;bottom=0;right=0;align=left;spacingLeft=6;fontStyle=5;" parent="C-vyLk0tnHw3VtMMgP7b-24" vertex="1">
          <mxGeometry x="30" width="300" height="30" as="geometry">
            <mxRectangle width="300" height="30" as="alternateBounds" />
          </mxGeometry>
        </mxCell>
        <mxCell id="-nGSuVrL44sIiE8bC4-4-1" style="shape=partialRectangle;collapsible=0;dropTarget=0;pointerEvents=0;fillColor=none;points=[[0,0.5],[1,0.5]];portConstraint=eastwest;top=0;left=0;right=0;bottom=0;" vertex="1" parent="C-vyLk0tnHw3VtMMgP7b-23">
          <mxGeometry y="60" width="330" height="30" as="geometry" />
        </mxCell>
        <mxCell id="-nGSuVrL44sIiE8bC4-4-2" value="FK1" style="shape=partialRectangle;overflow=hidden;connectable=0;fillColor=none;top=0;left=0;bottom=0;right=0;" vertex="1" parent="-nGSuVrL44sIiE8bC4-4-1">
          <mxGeometry width="30" height="30" as="geometry">
            <mxRectangle width="30" height="30" as="alternateBounds" />
          </mxGeometry>
        </mxCell>
        <mxCell id="-nGSuVrL44sIiE8bC4-4-3" value="user_id UUID NOT NULL" style="shape=partialRectangle;overflow=hidden;connectable=0;fillColor=none;top=0;left=0;bottom=0;right=0;align=left;spacingLeft=6;" vertex="1" parent="-nGSuVrL44sIiE8bC4-4-1">
          <mxGeometry x="30" width="300" height="30" as="geometry">
            <mxRectangle width="300" height="30" as="alternateBounds" />
          </mxGeometry>
        </mxCell>
        <mxCell id="C-vyLk0tnHw3VtMMgP7b-27" value="" style="shape=partialRectangle;collapsible=0;dropTarget=0;pointerEvents=0;fillColor=none;points=[[0,0.5],[1,0.5]];portConstraint=eastwest;top=0;left=0;right=0;bottom=0;" parent="C-vyLk0tnHw3VtMMgP7b-23" vertex="1">
          <mxGeometry y="90" width="330" height="30" as="geometry" />
        </mxCell>
        <mxCell id="C-vyLk0tnHw3VtMMgP7b-28" value="" style="shape=partialRectangle;overflow=hidden;connectable=0;fillColor=none;top=0;left=0;bottom=0;right=0;" parent="C-vyLk0tnHw3VtMMgP7b-27" vertex="1">
          <mxGeometry width="30" height="30" as="geometry">
            <mxRectangle width="30" height="30" as="alternateBounds" />
          </mxGeometry>
        </mxCell>
        <mxCell id="C-vyLk0tnHw3VtMMgP7b-29" value="name String NOT NULL" style="shape=partialRectangle;overflow=hidden;connectable=0;fillColor=none;top=0;left=0;bottom=0;right=0;align=left;spacingLeft=6;" parent="C-vyLk0tnHw3VtMMgP7b-27" vertex="1">
          <mxGeometry x="30" width="300" height="30" as="geometry">
            <mxRectangle width="300" height="30" as="alternateBounds" />
          </mxGeometry>
        </mxCell>
        <mxCell id="QKG5HHSuyWhP3_sXABJZ-62" style="shape=partialRectangle;collapsible=0;dropTarget=0;pointerEvents=0;fillColor=none;points=[[0,0.5],[1,0.5]];portConstraint=eastwest;top=0;left=0;right=0;bottom=0;" vertex="1" parent="C-vyLk0tnHw3VtMMgP7b-23">
          <mxGeometry y="120" width="330" height="30" as="geometry" />
        </mxCell>
        <mxCell id="QKG5HHSuyWhP3_sXABJZ-63" style="shape=partialRectangle;overflow=hidden;connectable=0;fillColor=none;top=0;left=0;bottom=0;right=0;" vertex="1" parent="QKG5HHSuyWhP3_sXABJZ-62">
          <mxGeometry width="30" height="30" as="geometry">
            <mxRectangle width="30" height="30" as="alternateBounds" />
          </mxGeometry>
        </mxCell>
        <mxCell id="QKG5HHSuyWhP3_sXABJZ-64" value="description String" style="shape=partialRectangle;overflow=hidden;connectable=0;fillColor=none;top=0;left=0;bottom=0;right=0;align=left;spacingLeft=6;" vertex="1" parent="QKG5HHSuyWhP3_sXABJZ-62">
          <mxGeometry x="30" width="300" height="30" as="geometry">
            <mxRectangle width="300" height="30" as="alternateBounds" />
          </mxGeometry>
        </mxCell>
        <mxCell id="QKG5HHSuyWhP3_sXABJZ-65" style="shape=partialRectangle;collapsible=0;dropTarget=0;pointerEvents=0;fillColor=none;points=[[0,0.5],[1,0.5]];portConstraint=eastwest;top=0;left=0;right=0;bottom=0;" vertex="1" parent="C-vyLk0tnHw3VtMMgP7b-23">
          <mxGeometry y="150" width="330" height="30" as="geometry" />
        </mxCell>
        <mxCell id="QKG5HHSuyWhP3_sXABJZ-66" style="shape=partialRectangle;overflow=hidden;connectable=0;fillColor=none;top=0;left=0;bottom=0;right=0;" vertex="1" parent="QKG5HHSuyWhP3_sXABJZ-65">
          <mxGeometry width="30" height="30" as="geometry">
            <mxRectangle width="30" height="30" as="alternateBounds" />
          </mxGeometry>
        </mxCell>
        <mxCell id="QKG5HHSuyWhP3_sXABJZ-67" value="type ENUM NOT NULL" style="shape=partialRectangle;overflow=hidden;connectable=0;fillColor=none;top=0;left=0;bottom=0;right=0;align=left;spacingLeft=6;" vertex="1" parent="QKG5HHSuyWhP3_sXABJZ-65">
          <mxGeometry x="30" width="300" height="30" as="geometry">
            <mxRectangle width="300" height="30" as="alternateBounds" />
          </mxGeometry>
        </mxCell>
        <mxCell id="QKG5HHSuyWhP3_sXABJZ-68" style="shape=partialRectangle;collapsible=0;dropTarget=0;pointerEvents=0;fillColor=none;points=[[0,0.5],[1,0.5]];portConstraint=eastwest;top=0;left=0;right=0;bottom=0;" vertex="1" parent="C-vyLk0tnHw3VtMMgP7b-23">
          <mxGeometry y="180" width="330" height="25" as="geometry" />
        </mxCell>
        <mxCell id="QKG5HHSuyWhP3_sXABJZ-69" style="shape=partialRectangle;overflow=hidden;connectable=0;fillColor=none;top=0;left=0;bottom=0;right=0;" vertex="1" parent="QKG5HHSuyWhP3_sXABJZ-68">
          <mxGeometry width="30" height="25" as="geometry">
            <mxRectangle width="30" height="25" as="alternateBounds" />
          </mxGeometry>
        </mxCell>
        <mxCell id="QKG5HHSuyWhP3_sXABJZ-70" value="expectedAmount BigDecimal NOT NULL DEFAUL 0" style="shape=partialRectangle;overflow=hidden;connectable=0;fillColor=none;top=0;left=0;bottom=0;right=0;align=left;spacingLeft=6;" vertex="1" parent="QKG5HHSuyWhP3_sXABJZ-68">
          <mxGeometry x="30" width="300" height="25" as="geometry">
            <mxRectangle width="300" height="25" as="alternateBounds" />
          </mxGeometry>
        </mxCell>
        <mxCell id="QKG5HHSuyWhP3_sXABJZ-71" style="shape=partialRectangle;collapsible=0;dropTarget=0;pointerEvents=0;fillColor=none;points=[[0,0.5],[1,0.5]];portConstraint=eastwest;top=0;left=0;right=0;bottom=0;" vertex="1" parent="C-vyLk0tnHw3VtMMgP7b-23">
          <mxGeometry y="205" width="330" height="30" as="geometry" />
        </mxCell>
        <mxCell id="QKG5HHSuyWhP3_sXABJZ-72" style="shape=partialRectangle;overflow=hidden;connectable=0;fillColor=none;top=0;left=0;bottom=0;right=0;" vertex="1" parent="QKG5HHSuyWhP3_sXABJZ-71">
          <mxGeometry width="30" height="30" as="geometry">
            <mxRectangle width="30" height="30" as="alternateBounds" />
          </mxGeometry>
        </mxCell>
        <mxCell id="QKG5HHSuyWhP3_sXABJZ-73" value="confirmedAmount BigDecimal NOT NULL DEFAUL 0" style="shape=partialRectangle;overflow=hidden;connectable=0;fillColor=none;top=0;left=0;bottom=0;right=0;align=left;spacingLeft=6;" vertex="1" parent="QKG5HHSuyWhP3_sXABJZ-71">
          <mxGeometry x="30" width="300" height="30" as="geometry">
            <mxRectangle width="300" height="30" as="alternateBounds" />
          </mxGeometry>
        </mxCell>
        <mxCell id="QKG5HHSuyWhP3_sXABJZ-74" style="shape=partialRectangle;collapsible=0;dropTarget=0;pointerEvents=0;fillColor=none;points=[[0,0.5],[1,0.5]];portConstraint=eastwest;top=0;left=0;right=0;bottom=0;" vertex="1" parent="C-vyLk0tnHw3VtMMgP7b-23">
          <mxGeometry y="235" width="330" height="30" as="geometry" />
        </mxCell>
        <mxCell id="QKG5HHSuyWhP3_sXABJZ-75" style="shape=partialRectangle;overflow=hidden;connectable=0;fillColor=none;top=0;left=0;bottom=0;right=0;" vertex="1" parent="QKG5HHSuyWhP3_sXABJZ-74">
          <mxGeometry width="30" height="30" as="geometry">
            <mxRectangle width="30" height="30" as="alternateBounds" />
          </mxGeometry>
        </mxCell>
        <mxCell id="QKG5HHSuyWhP3_sXABJZ-76" value="amountLastUpdated Timestamp NOT NULL" style="shape=partialRectangle;overflow=hidden;connectable=0;fillColor=none;top=0;left=0;bottom=0;right=0;align=left;spacingLeft=6;" vertex="1" parent="QKG5HHSuyWhP3_sXABJZ-74">
          <mxGeometry x="30" width="300" height="30" as="geometry">
            <mxRectangle width="300" height="30" as="alternateBounds" />
          </mxGeometry>
        </mxCell>
        <mxCell id="QKG5HHSuyWhP3_sXABJZ-77" style="shape=partialRectangle;collapsible=0;dropTarget=0;pointerEvents=0;fillColor=none;points=[[0,0.5],[1,0.5]];portConstraint=eastwest;top=0;left=0;right=0;bottom=0;" vertex="1" parent="C-vyLk0tnHw3VtMMgP7b-23">
          <mxGeometry y="265" width="330" height="30" as="geometry" />
        </mxCell>
        <mxCell id="QKG5HHSuyWhP3_sXABJZ-78" style="shape=partialRectangle;overflow=hidden;connectable=0;fillColor=none;top=0;left=0;bottom=0;right=0;" vertex="1" parent="QKG5HHSuyWhP3_sXABJZ-77">
          <mxGeometry width="30" height="30" as="geometry">
            <mxRectangle width="30" height="30" as="alternateBounds" />
          </mxGeometry>
        </mxCell>
        <mxCell id="QKG5HHSuyWhP3_sXABJZ-79" value="isActive bool NOT NULL DEFAULT TRUE" style="shape=partialRectangle;overflow=hidden;connectable=0;fillColor=none;top=0;left=0;bottom=0;right=0;align=left;spacingLeft=6;" vertex="1" parent="QKG5HHSuyWhP3_sXABJZ-77">
          <mxGeometry x="30" width="300" height="30" as="geometry">
            <mxRectangle width="300" height="30" as="alternateBounds" />
          </mxGeometry>
        </mxCell>
        <mxCell id="QKG5HHSuyWhP3_sXABJZ-80" style="shape=partialRectangle;collapsible=0;dropTarget=0;pointerEvents=0;fillColor=none;points=[[0,0.5],[1,0.5]];portConstraint=eastwest;top=0;left=0;right=0;bottom=0;" vertex="1" parent="C-vyLk0tnHw3VtMMgP7b-23">
          <mxGeometry y="295" width="330" height="30" as="geometry" />
        </mxCell>
        <mxCell id="QKG5HHSuyWhP3_sXABJZ-81" style="shape=partialRectangle;overflow=hidden;connectable=0;fillColor=none;top=0;left=0;bottom=0;right=0;" vertex="1" parent="QKG5HHSuyWhP3_sXABJZ-80">
          <mxGeometry width="30" height="30" as="geometry">
            <mxRectangle width="30" height="30" as="alternateBounds" />
          </mxGeometry>
        </mxCell>
        <mxCell id="QKG5HHSuyWhP3_sXABJZ-82" value="updatedAt Timestamp NOT NULL" style="shape=partialRectangle;overflow=hidden;connectable=0;fillColor=none;top=0;left=0;bottom=0;right=0;align=left;spacingLeft=6;" vertex="1" parent="QKG5HHSuyWhP3_sXABJZ-80">
          <mxGeometry x="30" width="300" height="30" as="geometry">
            <mxRectangle width="300" height="30" as="alternateBounds" />
          </mxGeometry>
        </mxCell>
        <mxCell id="QKG5HHSuyWhP3_sXABJZ-83" style="shape=partialRectangle;collapsible=0;dropTarget=0;pointerEvents=0;fillColor=none;points=[[0,0.5],[1,0.5]];portConstraint=eastwest;top=0;left=0;right=0;bottom=0;" vertex="1" parent="C-vyLk0tnHw3VtMMgP7b-23">
          <mxGeometry y="325" width="330" height="30" as="geometry" />
        </mxCell>
        <mxCell id="QKG5HHSuyWhP3_sXABJZ-84" style="shape=partialRectangle;overflow=hidden;connectable=0;fillColor=none;top=0;left=0;bottom=0;right=0;" vertex="1" parent="QKG5HHSuyWhP3_sXABJZ-83">
          <mxGeometry width="30" height="30" as="geometry">
            <mxRectangle width="30" height="30" as="alternateBounds" />
          </mxGeometry>
        </mxCell>
        <mxCell id="QKG5HHSuyWhP3_sXABJZ-85" value="createdAt Timestamp NOT NULL" style="shape=partialRectangle;overflow=hidden;connectable=0;fillColor=none;top=0;left=0;bottom=0;right=0;align=left;spacingLeft=6;" vertex="1" parent="QKG5HHSuyWhP3_sXABJZ-83">
          <mxGeometry x="30" width="300" height="30" as="geometry">
            <mxRectangle width="300" height="30" as="alternateBounds" />
          </mxGeometry>
        </mxCell>
        <mxCell id="QKG5HHSuyWhP3_sXABJZ-42" value="Category" style="shape=table;startSize=30;container=1;collapsible=1;childLayout=tableLayout;fixedRows=1;rowLines=0;fontStyle=1;align=center;resizeLast=1;" vertex="1" parent="1">
          <mxGeometry x="520" y="530" width="250" height="100" as="geometry" />
        </mxCell>
        <mxCell id="QKG5HHSuyWhP3_sXABJZ-43" value="" style="shape=partialRectangle;collapsible=0;dropTarget=0;pointerEvents=0;fillColor=none;points=[[0,0.5],[1,0.5]];portConstraint=eastwest;top=0;left=0;right=0;bottom=1;" vertex="1" parent="QKG5HHSuyWhP3_sXABJZ-42">
          <mxGeometry y="30" width="250" height="30" as="geometry" />
        </mxCell>
        <mxCell id="QKG5HHSuyWhP3_sXABJZ-44" value="PK" style="shape=partialRectangle;overflow=hidden;connectable=0;fillColor=none;top=0;left=0;bottom=0;right=0;fontStyle=1;" vertex="1" parent="QKG5HHSuyWhP3_sXABJZ-43">
          <mxGeometry width="30" height="30" as="geometry">
            <mxRectangle width="30" height="30" as="alternateBounds" />
          </mxGeometry>
        </mxCell>
        <mxCell id="QKG5HHSuyWhP3_sXABJZ-45" value="category_id UUID NOT NULL " style="shape=partialRectangle;overflow=hidden;connectable=0;fillColor=none;top=0;left=0;bottom=0;right=0;align=left;spacingLeft=6;fontStyle=5;" vertex="1" parent="QKG5HHSuyWhP3_sXABJZ-43">
          <mxGeometry x="30" width="220" height="30" as="geometry">
            <mxRectangle width="220" height="30" as="alternateBounds" />
          </mxGeometry>
        </mxCell>
        <mxCell id="QKG5HHSuyWhP3_sXABJZ-49" value="" style="shape=partialRectangle;collapsible=0;dropTarget=0;pointerEvents=0;fillColor=none;points=[[0,0.5],[1,0.5]];portConstraint=eastwest;top=0;left=0;right=0;bottom=0;" vertex="1" parent="QKG5HHSuyWhP3_sXABJZ-42">
          <mxGeometry y="60" width="250" height="30" as="geometry" />
        </mxCell>
        <mxCell id="QKG5HHSuyWhP3_sXABJZ-50" value="" style="shape=partialRectangle;overflow=hidden;connectable=0;fillColor=none;top=0;left=0;bottom=0;right=0;" vertex="1" parent="QKG5HHSuyWhP3_sXABJZ-49">
          <mxGeometry width="30" height="30" as="geometry">
            <mxRectangle width="30" height="30" as="alternateBounds" />
          </mxGeometry>
        </mxCell>
        <mxCell id="QKG5HHSuyWhP3_sXABJZ-51" value="name String NOT NULL" style="shape=partialRectangle;overflow=hidden;connectable=0;fillColor=none;top=0;left=0;bottom=0;right=0;align=left;spacingLeft=6;" vertex="1" parent="QKG5HHSuyWhP3_sXABJZ-49">
          <mxGeometry x="30" width="220" height="30" as="geometry">
            <mxRectangle width="220" height="30" as="alternateBounds" />
          </mxGeometry>
        </mxCell>
        <mxCell id="QKG5HHSuyWhP3_sXABJZ-52" style="edgeStyle=orthogonalEdgeStyle;rounded=0;orthogonalLoop=1;jettySize=auto;html=1;endArrow=ERzeroToMany;endFill=0;startArrow=ERone;startFill=0;" edge="1" parent="1" source="QKG5HHSuyWhP3_sXABJZ-42" target="C-vyLk0tnHw3VtMMgP7b-13">
          <mxGeometry relative="1" as="geometry">
            <Array as="points">
              <mxPoint x="575" y="590" />
            </Array>
          </mxGeometry>
        </mxCell>
      </root>
    </mxGraphModel>
  </diagram>
</mxfile>
